<?xml version="1.0" encoding="UTF-8" ?>
<!DOCTYPE svg PUBLIC "-//W3C//DTD SVG 1.1//EN" "http://www.w3.org/Graphics/SVG/1.1/DTD/svg11.dtd">
<svg width="1600pt" height="247pt" viewBox="0 0 1600 247" version="1.1" xmlns="http://www.w3.org/2000/svg">
<g id="#ffffffff">
<path fill="#ffffff" opacity="1.00" d=" M 0.00 0.00 L 1600.00 0.00 L 1600.00 247.00 L 0.00 247.00 L 0.00 0.00 M 983.90 19.69 C 967.49 22.72 950.82 24.61 934.72 29.17 C 929.15 30.81 923.41 31.72 917.74 32.95 C 913.60 33.82 909.73 35.63 905.56 36.36 C 901.33 37.09 897.43 39.33 893.04 39.08 C 881.54 38.51 869.89 38.92 858.62 36.27 C 853.79 36.27 849.00 37.39 844.20 37.95 C 836.51 39.86 828.46 41.44 821.77 45.93 C 820.56 46.56 820.41 48.07 819.83 49.16 C 810.25 53.76 799.52 54.92 789.07 55.78 C 779.08 56.74 769.26 54.37 759.56 52.38 C 755.63 51.54 752.04 49.35 747.95 49.25 C 742.84 49.20 737.86 50.54 732.97 51.85 C 728.47 52.88 725.05 56.23 720.91 58.07 C 718.99 60.46 716.30 62.20 714.90 64.99 C 713.70 67.44 711.47 69.08 709.78 71.14 C 709.52 72.64 709.57 74.17 709.54 75.68 C 700.21 77.64 690.70 78.35 681.26 79.55 C 673.82 79.82 666.45 81.16 658.99 81.00 C 637.70 81.67 615.91 81.32 595.42 74.88 C 583.96 74.10 572.42 74.09 560.93 73.91 C 547.63 72.95 534.28 72.77 521.03 71.26 C 510.66 70.21 500.31 68.93 490.01 67.31 C 484.48 66.47 479.04 63.68 473.37 65.13 C 458.33 67.15 443.06 67.35 427.92 66.34 C 410.55 65.85 393.33 63.45 376.08 61.58 C 369.47 60.20 362.77 59.50 356.09 58.62 C 342.85 56.01 329.51 54.02 316.26 51.48 C 316.23 51.19 316.17 50.60 316.14 50.30 C 313.28 50.13 310.38 50.25 307.72 51.39 C 309.86 52.22 312.04 52.98 314.22 53.70 C 314.32 54.80 314.41 55.91 314.52 57.01 C 316.10 58.17 317.70 59.32 319.28 60.48 C 319.61 67.20 319.90 73.94 319.02 80.64 C 314.19 83.51 309.10 86.01 303.72 87.67 C 297.36 89.21 290.91 90.37 284.48 91.56 C 277.30 92.44 270.06 92.63 262.83 92.96 C 273.74 95.00 284.38 98.07 295.11 100.78 C 302.19 103.07 309.63 105.25 314.95 110.79 C 311.77 112.38 308.91 114.75 305.33 115.41 C 294.85 117.77 284.10 118.54 273.42 119.56 C 242.31 121.54 211.10 121.10 179.96 119.83 C 174.95 119.75 170.07 118.10 165.03 118.44 C 143.72 119.91 122.40 121.13 101.09 122.43 C 93.34 123.27 85.52 122.78 77.75 123.39 C 93.73 126.57 110.09 127.88 125.78 132.49 C 137.27 134.95 148.93 138.22 158.75 144.89 C 163.89 147.01 169.65 146.72 175.11 147.27 C 203.72 150.10 232.47 152.80 260.41 159.92 C 260.46 161.70 260.50 163.48 260.52 165.26 C 246.00 170.73 230.28 171.17 215.00 172.59 C 223.12 174.25 231.20 176.08 239.40 177.34 C 265.13 180.69 291.10 181.80 317.03 182.16 C 336.67 183.12 356.34 183.03 376.00 183.00 C 397.01 183.12 418.01 181.83 439.02 181.98 C 452.34 181.38 465.68 181.35 479.01 180.78 C 501.37 180.67 523.51 177.32 545.76 175.51 C 577.78 172.94 609.84 170.67 642.00 170.81 C 662.91 171.08 684.17 171.57 704.35 177.63 C 708.09 179.20 711.85 181.02 714.89 183.75 C 711.13 184.96 707.35 186.17 703.76 187.83 C 684.38 195.73 665.06 203.79 645.72 211.77 C 642.13 213.29 638.67 215.21 634.82 215.97 C 634.64 216.35 634.47 216.73 634.31 217.11 C 627.77 219.34 621.79 222.97 615.18 225.01 C 614.34 225.71 613.49 226.40 612.64 227.08 C 608.97 227.13 603.95 229.20 604.28 233.55 C 604.65 233.30 605.38 232.80 605.75 232.55 C 613.94 233.19 622.20 232.70 630.42 232.54 C 643.48 232.06 656.78 232.13 669.43 228.45 C 671.17 227.53 672.98 226.61 674.38 225.18 C 674.68 223.35 674.69 221.50 674.75 219.65 C 675.86 219.64 676.97 219.62 678.09 219.60 C 679.46 216.73 681.67 214.57 684.73 213.59 C 684.66 212.63 684.62 211.68 684.58 210.74 C 685.96 210.62 687.35 210.50 688.74 210.37 C 692.37 206.64 697.19 204.47 701.61 201.84 C 712.28 196.45 723.54 192.12 735.16 189.27 C 748.24 184.54 762.16 182.82 775.98 182.00 C 785.76 182.16 795.59 181.50 805.32 182.77 C 813.92 183.09 822.44 184.32 831.02 184.98 C 837.21 185.81 843.33 187.15 849.58 187.66 C 870.77 191.21 891.81 195.72 912.81 200.26 C 919.87 203.19 927.53 203.41 935.03 204.18 C 948.00 205.13 960.96 206.10 973.93 207.00 C 984.59 206.41 994.81 209.89 1005.24 211.48 C 1022.95 214.32 1040.61 217.48 1058.45 219.38 C 1065.59 220.68 1072.81 221.30 1080.04 221.95 C 1108.89 225.31 1137.99 226.53 1167.04 225.89 C 1173.05 225.64 1179.04 224.83 1185.06 224.66 C 1179.78 223.91 1175.42 220.65 1170.42 219.12 C 1170.41 217.01 1170.41 214.91 1170.41 212.82 C 1186.16 207.90 1202.71 207.32 1219.04 206.14 C 1243.33 205.64 1267.65 204.90 1291.95 205.89 C 1300.99 204.80 1309.73 201.88 1318.81 200.87 C 1339.44 198.18 1360.27 197.30 1381.06 196.83 C 1406.68 195.37 1432.35 196.23 1458.00 196.00 C 1466.70 195.88 1475.38 197.42 1484.08 196.56 C 1461.85 194.86 1439.20 192.34 1418.63 183.19 C 1413.33 181.22 1407.57 181.46 1402.02 181.06 C 1378.66 179.60 1355.28 177.79 1332.19 173.94 C 1330.22 172.84 1328.13 171.92 1326.41 170.47 C 1326.31 168.94 1326.48 167.41 1326.62 165.89 C 1329.41 164.83 1332.29 163.97 1335.25 163.46 C 1344.10 161.82 1352.87 159.58 1361.88 158.97 C 1384.91 155.46 1408.17 153.66 1431.35 151.43 C 1427.26 150.00 1423.05 148.94 1418.79 148.27 C 1418.71 147.42 1418.66 146.58 1418.62 145.74 C 1417.58 145.57 1416.57 145.40 1415.57 145.24 C 1415.59 144.98 1415.65 144.46 1415.67 144.20 C 1417.69 143.49 1419.29 142.08 1420.34 140.21 C 1425.67 138.33 1430.86 136.09 1436.25 134.38 C 1446.27 132.17 1455.98 128.57 1466.26 127.54 C 1494.61 125.41 1522.49 119.46 1550.20 113.34 C 1537.42 112.89 1524.73 115.12 1511.96 115.04 C 1506.65 115.34 1501.35 116.01 1496.03 115.96 C 1470.52 116.49 1444.81 117.55 1419.49 113.76 C 1413.50 113.37 1408.07 110.29 1402.06 110.09 C 1394.69 110.01 1387.36 111.08 1380.00 110.99 C 1374.63 110.95 1369.30 111.56 1363.96 111.86 C 1338.32 112.12 1312.65 113.40 1287.01 112.02 C 1278.02 112.41 1269.12 111.07 1260.16 110.78 C 1243.96 109.65 1227.67 107.89 1212.05 103.44 C 1186.10 108.77 1159.39 110.60 1132.95 108.78 C 1124.30 108.44 1115.62 107.82 1107.13 106.03 C 1105.17 104.99 1103.20 103.95 1101.27 102.89 C 1102.87 102.21 1104.51 101.55 1106.15 100.92 C 1106.35 100.40 1106.75 99.37 1106.95 98.85 C 1112.55 96.58 1118.60 95.94 1124.46 94.63 C 1134.06 92.86 1143.31 89.61 1152.94 87.94 C 1162.34 85.41 1171.58 82.18 1180.35 77.91 C 1180.51 76.04 1180.46 74.16 1180.47 72.29 C 1173.33 71.37 1166.15 72.16 1159.00 71.97 C 1147.40 72.15 1135.72 71.84 1124.35 69.38 C 1124.46 67.94 1124.54 66.50 1124.81 65.09 C 1128.37 63.48 1132.20 62.45 1135.76 60.78 C 1139.06 59.43 1141.99 57.31 1145.37 56.11 C 1145.42 55.28 1145.48 54.45 1145.56 53.62 C 1142.10 52.70 1138.75 50.88 1135.08 51.32 C 1120.27 52.41 1105.29 52.21 1090.65 49.55 C 1084.49 47.94 1078.27 45.97 1072.85 42.53 C 1072.39 39.27 1070.15 36.98 1067.32 35.55 C 1066.19 27.71 1066.57 19.75 1067.53 11.92 C 1066.83 12.00 1065.43 12.16 1064.73 12.24 C 1037.67 13.13 1010.65 15.51 983.90 19.69 M 14.18 239.12 C 14.43 240.99 14.68 242.86 14.93 244.73 C 20.90 245.49 26.90 245.04 32.88 244.75 C 38.81 244.96 44.75 245.02 50.68 244.65 C 62.85 245.04 75.05 245.29 87.21 244.67 C 91.41 244.67 95.61 245.32 99.80 244.84 C 108.22 243.70 116.64 245.72 125.08 244.97 C 125.42 243.02 125.75 241.07 126.08 239.13 C 118.69 238.76 111.29 239.24 103.91 239.58 C 103.50 239.63 102.69 239.72 102.29 239.77 C 97.37 238.14 92.23 239.37 87.20 239.36 C 76.26 238.85 65.27 238.56 54.33 239.33 C 40.95 239.54 27.55 238.19 14.18 239.12 M 237.69 240.49 C 231.77 241.56 225.63 239.94 219.84 241.89 C 215.90 243.15 212.03 240.63 208.04 240.89 C 183.76 241.24 159.48 240.67 135.20 241.15 C 134.84 242.05 134.48 242.96 134.12 243.87 C 146.66 246.40 159.39 244.02 172.01 245.03 C 181.01 245.21 190.00 244.14 198.98 245.07 C 211.99 244.84 225.00 244.42 238.02 244.56 C 243.48 244.63 248.90 246.04 254.38 245.40 C 268.01 243.36 281.78 245.66 295.47 244.66 C 303.65 245.24 311.82 244.26 319.99 244.88 C 332.05 244.07 344.13 244.88 356.20 244.92 C 354.81 244.27 353.42 243.63 352.03 242.99 C 353.01 242.37 353.99 241.74 354.98 241.12 C 339.99 240.54 325.00 241.46 310.01 240.82 C 300.84 240.07 291.99 243.75 282.81 242.71 C 285.69 242.37 288.57 241.97 291.41 241.32 C 287.02 240.57 282.57 240.73 278.15 241.01 C 279.09 241.86 280.01 242.73 280.94 243.61 C 277.25 243.30 274.52 240.18 270.82 240.03 C 266.19 239.71 261.64 240.94 257.02 241.05 C 250.55 241.40 244.14 239.24 237.69 240.49 M 1161.90 240.97 C 1154.94 241.49 1147.98 240.49 1141.02 240.76 C 1132.99 241.02 1124.95 240.42 1116.93 240.79 C 1107.63 241.63 1098.22 242.42 1088.91 241.26 C 1082.79 240.51 1076.61 240.87 1070.48 241.36 C 1070.40 241.98 1070.23 243.22 1070.15 243.84 C 1074.83 244.70 1079.61 244.90 1084.32 244.16 C 1088.59 243.47 1092.69 245.91 1096.96 244.95 C 1101.03 244.18 1105.14 243.02 1109.32 243.73 C 1122.16 245.46 1135.09 243.89 1147.98 244.14 C 1157.00 243.39 1165.99 244.99 1175.02 244.31 C 1185.08 244.67 1195.16 245.06 1205.23 244.44 C 1212.70 243.90 1220.25 245.57 1227.66 243.95 C 1233.34 244.25 1239.04 244.40 1244.74 244.22 C 1246.67 244.50 1248.62 244.33 1250.55 243.98 C 1246.25 240.22 1240.26 240.68 1234.95 240.70 C 1227.29 240.99 1219.64 240.62 1211.99 240.73 C 1202.65 240.93 1193.34 239.48 1184.01 240.27 C 1176.65 240.96 1169.26 240.47 1161.90 240.97 M 1259.43 241.17 C 1259.98 244.92 1264.23 244.44 1267.09 244.62 C 1277.72 244.63 1288.36 244.56 1299.00 244.41 C 1303.96 244.46 1308.92 245.21 1313.90 244.76 C 1321.08 244.16 1328.32 244.02 1335.52 244.53 C 1346.36 245.31 1357.22 243.55 1368.05 244.69 C 1384.34 244.12 1400.65 244.56 1416.95 244.46 C 1424.20 245.10 1431.48 244.11 1438.73 244.88 C 1438.25 244.22 1437.78 243.56 1437.33 242.91 C 1443.40 243.68 1449.44 245.38 1455.62 244.71 C 1462.76 244.45 1469.92 242.84 1477.07 244.02 C 1487.35 245.06 1497.68 244.87 1508.00 244.39 C 1515.39 243.88 1522.77 245.29 1530.16 244.51 C 1535.39 244.26 1540.70 242.87 1545.93 244.09 C 1552.15 245.63 1558.51 244.00 1564.81 244.32 C 1572.31 244.23 1580.15 245.80 1587.28 242.66 C 1581.06 238.99 1573.76 242.05 1567.03 240.94 C 1557.69 241.66 1548.38 240.58 1539.03 240.82 C 1531.27 240.91 1523.12 239.50 1515.80 242.82 C 1515.69 242.38 1515.47 241.50 1515.36 241.06 C 1508.23 240.56 1501.09 240.81 1493.96 240.96 C 1485.63 241.42 1477.32 240.50 1468.99 240.78 C 1461.70 241.04 1454.19 239.71 1447.14 242.16 C 1437.86 239.43 1428.02 241.05 1418.50 241.06 C 1418.50 241.44 1418.51 242.21 1418.51 242.60 C 1415.81 241.49 1412.95 240.69 1410.02 240.77 C 1397.01 240.75 1384.00 241.04 1371.00 240.80 C 1367.04 240.43 1363.26 243.26 1359.39 241.71 C 1355.87 240.50 1352.14 240.59 1348.50 240.94 C 1348.45 241.41 1348.34 242.34 1348.29 242.80 C 1345.35 241.60 1342.23 240.67 1339.03 240.84 C 1330.34 241.11 1321.65 240.71 1312.96 240.70 C 1308.28 240.43 1304.06 243.67 1299.37 242.61 C 1286.14 240.55 1272.76 240.85 1259.43 241.17 Z" />
</g>
<g id="#e50416ff">
<path fill="#e50416" opacity="1.00" d=" M 983.90 19.69 C 1010.65 15.51 1037.67 13.13 1064.73 12.24 C 1064.40 20.06 1063.66 27.98 1064.84 35.76 C 1067.01 38.53 1069.90 40.66 1072.85 42.53 C 1078.27 45.97 1084.49 47.94 1090.65 49.55 C 1105.29 52.21 1120.27 52.41 1135.08 51.32 C 1138.75 50.88 1142.10 52.70 1145.56 53.62 C 1145.48 54.45 1145.42 55.28 1145.37 56.11 C 1141.99 57.31 1139.06 59.43 1135.76 60.78 C 1132.20 62.45 1128.37 63.48 1124.81 65.09 C 1124.54 66.50 1124.46 67.94 1124.35 69.38 C 1135.72 71.84 1147.40 72.15 1159.00 71.97 C 1166.15 72.16 1173.33 71.37 1180.47 72.29 C 1180.46 74.16 1180.51 76.04 1180.35 77.91 C 1171.58 82.18 1162.34 85.41 1152.94 87.94 C 1143.31 89.61 1134.06 92.86 1124.46 94.63 C 1118.60 95.94 1112.55 96.58 1106.95 98.85 C 1104.01 99.92 1101.14 101.14 1098.25 102.32 C 1098.38 102.79 1098.64 103.75 1098.77 104.22 C 1101.55 104.86 1104.32 105.50 1107.13 106.03 C 1115.62 107.82 1124.30 108.44 1132.95 108.78 C 1159.39 110.60 1186.10 108.77 1212.05 103.44 C 1227.67 107.89 1243.96 109.65 1260.16 110.78 C 1269.12 111.07 1278.02 112.41 1287.01 112.02 C 1312.65 113.40 1338.32 112.12 1363.96 111.86 C 1369.30 111.56 1374.63 110.95 1380.00 110.99 C 1387.36 111.08 1394.69 110.01 1402.06 110.09 C 1408.07 110.29 1413.50 113.37 1419.49 113.76 C 1444.81 117.55 1470.52 116.49 1496.03 115.96 C 1501.35 116.01 1506.65 115.34 1511.96 115.04 C 1524.73 115.12 1537.42 112.89 1550.20 113.34 C 1522.49 119.46 1494.61 125.41 1466.26 127.54 C 1455.98 128.57 1446.27 132.17 1436.25 134.38 C 1430.86 136.09 1425.67 138.33 1420.34 140.21 C 1419.29 142.08 1417.69 143.49 1415.67 144.20 C 1415.65 144.46 1415.59 144.98 1415.57 145.24 C 1416.57 145.40 1417.58 145.57 1418.62 145.74 C 1418.66 146.58 1418.71 147.42 1418.79 148.27 C 1423.05 148.94 1427.26 150.00 1431.35 151.43 C 1408.17 153.66 1384.91 155.46 1361.88 158.97 C 1352.87 159.58 1344.10 161.82 1335.25 163.46 C 1332.29 163.97 1329.41 164.83 1326.62 165.89 C 1324.07 166.85 1321.66 168.08 1319.21 169.24 C 1323.37 171.20 1327.58 173.22 1332.19 173.94 C 1355.28 177.79 1378.66 179.60 1402.02 181.06 C 1407.57 181.46 1413.33 181.22 1418.63 183.19 C 1439.20 192.34 1461.85 194.86 1484.08 196.56 C 1475.38 197.42 1466.70 195.88 1458.00 196.00 C 1432.35 196.23 1406.68 195.37 1381.06 196.83 C 1360.27 197.30 1339.44 198.18 1318.81 200.87 C 1309.73 201.88 1300.99 204.80 1291.95 205.89 C 1267.65 204.90 1243.33 205.64 1219.04 206.14 C 1202.71 207.32 1186.16 207.90 1170.41 212.82 C 1170.41 214.91 1170.41 217.01 1170.42 219.12 C 1175.42 220.65 1179.78 223.91 1185.06 224.66 C 1179.04 224.83 1173.05 225.64 1167.04 225.89 C 1137.99 226.53 1108.89 225.31 1080.04 221.95 C 1072.81 221.30 1065.59 220.68 1058.45 219.38 C 1040.61 217.48 1022.95 214.32 1005.24 211.48 C 994.81 209.89 984.59 206.41 973.93 207.00 C 960.96 206.10 948.00 205.13 935.03 204.18 C 927.53 203.41 919.87 203.19 912.81 200.26 C 891.81 195.72 870.77 191.21 849.58 187.66 C 843.33 187.15 837.21 185.81 831.02 184.98 C 822.44 184.32 813.92 183.09 805.32 182.77 C 795.59 181.50 785.76 182.16 775.98 182.00 C 762.16 182.82 748.24 184.54 735.16 189.27 C 723.54 192.12 712.28 196.45 701.61 201.84 C 697.19 204.47 692.37 206.64 688.74 210.37 C 687.35 210.50 685.96 210.62 684.58 210.74 C 684.62 211.68 684.66 212.63 684.73 213.59 C 681.67 214.57 679.46 216.73 678.09 219.60 C 676.97 219.62 675.86 219.64 674.75 219.65 C 674.69 221.50 674.68 223.35 674.38 225.18 C 672.98 226.61 671.17 227.53 669.43 228.45 C 656.78 232.13 643.48 232.06 630.42 232.54 C 622.20 232.70 613.94 233.19 605.75 232.55 C 608.09 230.79 610.36 228.93 612.64 227.08 C 613.49 226.40 614.34 225.71 615.18 225.01 C 621.79 222.97 627.77 219.34 634.31 217.11 C 634.47 216.73 634.64 216.35 634.82 215.97 C 638.67 215.21 642.13 213.29 645.72 211.77 C 665.06 203.79 684.38 195.73 703.76 187.83 C 707.35 186.17 711.13 184.96 714.89 183.75 C 711.85 181.02 708.09 179.20 704.35 177.63 C 684.17 171.57 662.91 171.08 642.00 170.81 C 609.84 170.67 577.78 172.94 545.76 175.51 C 523.51 177.32 501.37 180.67 479.01 180.78 C 465.68 181.35 452.34 181.38 439.02 181.98 C 418.01 181.83 397.01 183.12 376.00 183.00 C 356.34 183.03 336.67 183.12 317.03 182.16 C 291.10 181.80 265.13 180.69 239.40 177.34 C 231.20 176.08 223.12 174.25 215.00 172.59 C 230.28 171.17 246.00 170.73 260.52 165.26 C 260.50 163.48 260.46 161.70 260.41 159.92 C 232.47 152.80 203.72 150.10 175.11 147.27 C 169.65 146.72 163.89 147.01 158.75 144.89 C 148.93 138.22 137.27 134.95 125.78 132.49 C 110.09 127.88 93.73 126.57 77.75 123.39 C 85.52 122.78 93.34 123.27 101.09 122.43 C 122.40 121.13 143.72 119.91 165.03 118.44 C 170.07 118.10 174.95 119.75 179.96 119.83 C 211.10 121.10 242.31 121.54 273.42 119.56 C 284.10 118.54 294.85 117.77 305.33 115.41 C 308.91 114.75 311.77 112.38 314.95 110.79 C 309.63 105.25 302.19 103.07 295.11 100.78 C 284.38 98.07 273.74 95.00 262.83 92.96 C 270.06 92.63 277.30 92.44 284.48 91.56 C 290.91 90.37 297.36 89.21 303.72 87.67 C 309.10 86.01 314.19 83.51 319.02 80.64 C 321.97 78.56 323.76 75.10 324.53 71.64 C 324.57 68.26 322.82 65.18 321.61 62.12 C 320.19 58.33 315.98 55.89 316.26 51.48 C 329.51 54.02 342.85 56.01 356.09 58.62 C 362.77 59.50 369.47 60.20 376.08 61.58 C 393.33 63.45 410.55 65.85 427.92 66.34 C 443.06 67.35 458.33 67.15 473.37 65.13 C 479.04 63.68 484.48 66.47 490.01 67.31 C 500.31 68.93 510.66 70.21 521.03 71.26 C 534.28 72.77 547.63 72.95 560.93 73.91 C 572.42 74.09 583.96 74.10 595.42 74.88 C 615.91 81.32 637.70 81.67 658.99 81.00 C 666.45 81.16 673.82 79.82 681.26 79.55 C 690.70 78.35 700.21 77.64 709.54 75.68 C 709.57 74.17 709.52 72.64 709.78 71.14 C 711.47 69.08 713.70 67.44 714.90 64.99 C 716.30 62.20 718.99 60.46 720.91 58.07 C 725.05 56.23 728.47 52.88 732.97 51.85 C 737.86 50.54 742.84 49.20 747.95 49.25 C 752.04 49.35 755.63 51.54 759.56 52.38 C 769.26 54.37 779.08 56.74 789.07 55.78 C 799.52 54.92 810.25 53.76 819.83 49.16 C 820.41 48.07 820.56 46.56 821.77 45.93 C 828.46 41.44 836.51 39.86 844.20 37.95 C 849.00 37.39 853.79 36.27 858.62 36.27 C 869.89 38.92 881.54 38.51 893.04 39.08 C 897.43 39.33 901.33 37.09 905.56 36.36 C 909.73 35.63 913.60 33.82 917.74 32.95 C 923.41 31.72 929.15 30.81 934.72 29.17 C 950.82 24.61 967.49 22.72 983.90 19.69 M 814.67 60.17 C 828.03 63.06 841.93 62.61 855.33 60.23 C 848.53 59.78 841.79 61.10 835.00 60.96 C 828.20 61.19 821.46 60.00 814.67 60.17 M 891.03 76.17 C 892.08 77.41 893.25 78.58 894.13 79.97 C 895.57 85.08 891.90 91.50 896.33 95.66 C 901.90 103.14 910.82 108.10 920.25 107.88 C 916.48 105.57 911.92 104.51 908.75 101.30 C 906.24 98.76 903.52 96.41 901.34 93.59 C 900.31 88.72 901.07 83.64 900.59 78.69 C 897.41 77.79 894.23 76.96 891.03 76.17 M 549.67 77.97 C 552.55 83.67 559.52 85.00 564.24 88.76 C 560.43 88.95 556.62 89.15 552.83 89.54 C 558.60 90.08 564.87 88.78 570.16 91.77 C 574.91 94.26 579.74 96.70 583.94 100.09 C 588.85 104.19 595.31 105.69 600.31 109.68 C 607.49 115.26 615.61 119.41 623.31 124.19 C 614.88 125.95 606.25 124.52 597.75 125.42 C 606.80 126.57 615.96 125.53 625.05 126.00 C 628.09 126.21 630.51 128.28 632.99 129.82 C 630.26 130.04 627.54 130.25 624.82 130.50 C 628.52 131.08 632.28 131.28 635.98 131.92 C 640.62 132.79 644.42 135.81 648.08 138.61 C 646.69 138.95 645.31 139.30 643.93 139.63 C 647.03 139.79 650.26 139.68 653.20 140.85 C 655.72 141.84 657.51 143.94 659.31 145.87 C 655.15 146.08 650.99 146.17 646.85 146.54 C 652.84 147.21 659.24 145.53 664.92 148.06 C 674.62 153.10 683.39 159.70 692.81 165.22 C 695.47 166.82 697.91 168.76 700.18 170.88 C 693.48 170.77 686.92 169.25 680.28 168.53 C 669.53 167.31 658.82 165.74 648.04 164.75 C 600.82 159.89 553.35 155.88 505.84 157.41 C 520.86 158.44 535.97 157.08 550.96 158.72 C 570.08 159.74 589.23 160.64 608.29 162.59 C 600.76 163.66 593.13 162.92 585.58 163.65 C 573.34 164.66 561.03 163.44 548.82 164.57 C 561.86 165.31 574.94 164.69 588.00 164.71 C 604.28 164.43 620.67 163.12 636.88 165.34 C 655.57 167.31 674.26 169.44 692.86 172.19 C 698.08 173.05 703.63 173.11 708.44 175.58 C 712.60 177.81 716.34 181.14 721.19 181.77 C 736.37 184.90 751.59 180.63 766.76 179.62 C 781.82 178.12 796.84 175.45 812.03 176.04 C 829.05 176.92 846.15 177.71 863.17 176.51 C 846.38 175.19 829.44 177.03 812.73 174.56 C 858.13 169.49 903.58 164.77 949.01 159.97 C 954.44 159.35 959.94 158.71 965.40 159.48 C 975.64 160.87 985.96 161.45 996.23 162.68 C 1004.86 163.45 1013.56 164.70 1022.23 163.67 C 1014.29 162.75 1006.30 162.38 998.36 161.45 C 987.46 160.97 976.68 159.17 965.79 158.49 C 972.17 157.28 978.65 156.94 985.10 156.35 C 995.85 155.49 1006.58 153.27 1017.40 154.48 C 1045.92 155.59 1074.44 157.44 1103.01 156.89 C 1107.35 156.80 1111.74 157.03 1116.00 158.01 C 1124.58 159.97 1133.39 161.32 1142.23 160.77 C 1135.09 159.70 1127.86 159.12 1120.84 157.36 C 1139.16 155.41 1157.63 156.43 1176.01 155.21 C 1187.33 154.76 1198.67 155.33 1210.00 155.20 C 1225.49 155.40 1240.98 154.99 1256.47 155.53 C 1275.72 155.18 1294.98 156.79 1314.21 155.59 C 1304.52 154.38 1294.72 155.40 1284.99 154.76 C 1272.35 153.86 1259.66 154.34 1247.00 153.89 C 1220.65 153.66 1194.29 153.75 1167.95 154.37 C 1153.46 155.49 1138.91 154.45 1124.42 155.54 C 1115.28 156.37 1106.15 155.07 1097.01 155.14 C 1084.34 155.10 1071.68 155.03 1059.04 154.23 C 1046.94 153.72 1034.74 154.50 1022.75 152.60 C 1031.72 151.39 1040.74 150.61 1049.75 149.66 C 1059.16 148.82 1068.59 147.36 1078.07 148.11 C 1089.40 149.02 1100.84 149.60 1112.19 148.46 C 1102.76 147.31 1093.09 149.03 1083.82 146.61 C 1101.90 145.20 1119.92 143.13 1138.01 141.80 C 1150.22 140.83 1162.50 138.87 1174.77 140.33 C 1195.37 142.08 1216.07 142.26 1236.74 141.89 L 1236.77 141.19 C 1222.53 140.68 1208.24 141.61 1194.06 140.05 C 1188.95 139.74 1183.80 139.67 1178.79 138.53 C 1193.48 137.16 1208.21 136.11 1222.90 134.71 C 1232.60 133.59 1242.40 133.69 1252.11 134.53 C 1264.31 135.60 1276.54 134.48 1288.76 134.86 L 1288.77 134.14 C 1275.11 133.98 1261.28 134.88 1247.75 132.60 C 1279.71 129.80 1311.66 126.93 1343.56 123.53 C 1349.84 122.86 1356.23 122.85 1362.36 121.14 C 1353.50 120.56 1344.79 122.72 1335.97 123.14 C 1320.90 124.11 1305.91 126.33 1290.82 126.96 C 1295.60 124.56 1300.89 123.16 1305.26 119.98 C 1298.50 120.41 1292.19 123.10 1286.27 126.19 C 1281.89 128.56 1276.80 128.54 1271.98 128.97 C 1235.37 132.26 1198.74 135.37 1162.11 138.38 C 1150.04 139.01 1138.04 140.70 1125.96 140.97 C 1128.79 139.92 1131.58 138.68 1134.09 136.97 C 1126.20 136.85 1119.81 142.54 1112.02 142.78 C 1098.39 143.69 1084.82 145.19 1071.22 146.38 C 1055.45 147.61 1039.69 149.04 1023.97 150.78 C 1016.19 151.30 1008.46 153.07 1000.64 152.30 C 1000.54 150.48 1000.52 148.66 1000.51 146.84 C 1005.15 145.50 1009.66 143.74 1014.33 142.48 C 1021.20 140.02 1028.52 138.65 1034.92 134.98 C 1036.35 134.11 1037.99 133.66 1039.61 133.19 C 1039.59 132.02 1039.60 130.86 1039.62 129.70 C 1031.73 128.59 1024.12 126.12 1016.26 124.87 C 1005.73 123.14 995.21 121.13 984.53 120.66 C 976.00 119.59 967.44 121.28 958.91 120.30 C 951.59 120.38 944.34 121.81 937.00 121.32 C 929.40 122.05 921.81 122.27 914.19 122.35 C 910.97 122.42 907.79 122.93 904.63 123.51 C 899.28 124.51 893.80 124.57 888.45 125.58 C 887.07 125.42 885.69 125.15 884.32 125.33 C 878.82 122.33 872.29 122.78 866.65 120.31 C 861.84 117.16 855.98 116.58 850.47 115.53 C 840.69 114.00 830.94 111.93 821.05 111.35 C 814.04 112.08 807.02 111.69 800.00 111.42 C 796.67 111.16 793.37 110.07 790.03 110.71 C 780.15 112.45 770.31 114.39 760.54 116.60 C 755.38 115.91 750.11 116.88 745.46 119.15 C 746.10 122.69 747.33 126.14 749.39 129.11 C 749.99 129.01 751.18 128.81 751.78 128.71 C 755.54 130.07 758.99 132.16 762.74 133.56 C 766.92 135.19 770.32 138.68 774.99 138.99 C 778.97 140.07 783.69 140.39 786.57 143.69 C 787.75 143.78 788.94 143.86 790.14 143.94 L 790.19 144.34 C 797.79 145.64 805.19 147.92 812.83 149.13 C 811.99 150.47 810.97 151.79 809.35 152.20 C 800.66 155.20 792.02 158.35 783.31 161.27 C 775.48 163.96 767.33 160.24 760.56 156.43 C 755.83 153.91 752.66 148.59 747.04 147.88 C 742.16 147.07 737.23 146.77 732.32 146.25 C 732.29 146.60 732.23 147.30 732.20 147.65 C 735.58 147.89 739.08 147.69 742.36 148.72 C 745.45 150.86 747.48 154.29 750.88 156.04 C 758.51 159.93 766.91 162.03 775.27 163.72 C 760.09 169.69 744.46 174.51 729.17 180.18 C 723.98 182.33 720.03 177.32 715.92 175.08 C 700.51 165.92 686.07 155.18 670.17 146.83 C 661.42 141.47 652.67 136.10 643.48 131.50 C 634.43 126.21 625.38 120.90 616.27 115.72 C 611.01 112.82 606.61 108.64 601.41 105.65 C 592.30 100.55 583.34 95.18 574.57 89.53 C 571.53 87.75 568.16 86.65 565.06 84.98 C 560.06 82.39 555.42 78.70 549.67 77.97 M 592.98 82.09 C 586.86 84.02 580.52 85.38 574.68 88.09 C 580.51 88.40 585.85 85.81 591.38 84.44 C 596.03 83.23 600.73 82.12 605.15 80.18 C 600.98 79.19 596.94 81.07 592.98 82.09 M 683.29 85.38 C 675.81 89.62 667.84 92.80 659.89 96.00 C 653.20 99.13 646.00 101.18 639.69 105.06 C 647.43 104.98 654.52 101.43 661.56 98.60 C 671.27 93.88 681.15 89.55 690.87 84.84 C 692.66 84.01 694.08 82.61 695.38 81.14 C 690.94 81.11 687.08 83.37 683.29 85.38 M 816.50 97.55 C 813.93 99.37 814.44 102.87 814.15 105.60 C 816.37 105.73 818.60 105.85 820.84 105.96 C 820.76 103.46 820.68 100.97 820.59 98.47 C 824.04 97.04 827.57 95.60 830.33 93.00 C 825.40 93.10 820.52 94.70 816.50 97.55 M 1244.01 117.92 C 1221.05 121.34 1198.03 124.28 1175.15 128.21 C 1166.62 129.82 1157.86 130.82 1149.73 133.98 C 1157.62 133.83 1165.18 131.27 1172.90 129.87 C 1183.14 127.58 1193.55 126.28 1203.94 124.85 C 1224.33 121.67 1245.17 120.73 1265.12 115.16 C 1258.01 115.53 1251.06 117.17 1244.01 117.92 M 345.76 120.77 C 351.08 125.25 358.22 126.95 363.20 131.88 C 365.20 133.75 364.45 136.75 364.67 139.18 C 368.00 138.67 371.18 137.50 374.04 135.70 C 371.26 130.44 365.70 127.85 360.54 125.48 C 355.81 123.41 351.11 120.54 345.76 120.77 M 915.83 178.42 C 926.08 179.64 936.54 180.15 946.42 183.42 C 954.95 185.95 962.27 191.27 970.61 194.29 C 975.37 195.89 980.01 198.79 985.23 198.22 C 981.07 195.32 976.32 193.50 971.88 191.11 C 966.95 188.48 961.95 185.88 956.57 184.30 C 949.74 182.07 942.48 181.58 935.67 179.30 C 938.49 179.03 941.33 178.79 944.17 178.49 C 934.74 178.16 925.25 177.76 915.83 178.42 M 946.80 179.46 C 956.23 180.76 965.78 179.61 975.23 180.58 C 980.15 181.05 985.09 181.14 990.04 181.13 C 1028.01 183.04 1065.97 185.48 1103.93 187.92 C 1117.07 188.00 1130.15 190.73 1143.28 189.71 C 1139.62 189.06 1135.91 188.79 1132.22 188.53 C 1102.39 186.57 1072.58 184.18 1042.74 182.50 C 1049.70 181.62 1056.73 181.95 1063.74 181.79 L 1063.79 181.04 C 1051.84 180.83 1039.88 180.85 1027.95 181.58 C 1012.94 181.13 997.94 179.95 982.92 179.81 C 970.91 179.14 958.79 177.97 946.80 179.46 Z" />
</g>
<g id="#f4b9baff">
<path fill="#f4b9ba" opacity="1.00" d=" M 1064.73 12.24 C 1065.43 12.16 1066.83 12.00 1067.53 11.92 C 1066.57 19.75 1066.19 27.71 1067.32 35.55 C 1070.15 36.98 1072.39 39.27 1072.85 42.53 C 1069.90 40.66 1067.01 38.53 1064.84 35.76 C 1063.66 27.98 1064.40 20.06 1064.73 12.24 Z" />
</g>
<g id="#ef8382ff">
<path fill="#ef8382" opacity="1.00" d=" M 307.72 51.39 C 310.38 50.25 313.28 50.13 316.14 50.30 C 316.17 50.60 316.23 51.19 316.26 51.48 C 315.98 55.89 320.19 58.33 321.61 62.12 C 322.82 65.18 324.57 68.26 324.53 71.64 C 323.76 75.10 321.97 78.56 319.02 80.64 C 319.90 73.94 319.61 67.20 319.28 60.48 C 317.70 59.32 316.10 58.17 314.52 57.01 C 314.41 55.91 314.32 54.80 314.22 53.70 C 312.04 52.98 309.86 52.22 307.72 51.39 Z" />
</g>
<g id="#e82727ff">
<path fill="#e82727" opacity="1.00" d=" M 814.67 60.17 C 821.46 60.00 828.20 61.19 835.00 60.96 C 841.79 61.10 848.53 59.78 855.33 60.23 C 841.93 62.61 828.03 63.06 814.67 60.17 Z" />
</g>
<g id="#e61f20ff">
<path fill="#e61f20" opacity="1.00" d=" M 891.03 76.17 C 894.23 76.96 897.41 77.79 900.59 78.69 C 901.07 83.64 900.31 88.72 901.34 93.59 C 903.52 96.41 906.24 98.76 908.75 101.30 C 911.92 104.51 916.48 105.57 920.25 107.88 C 910.82 108.10 901.90 103.14 896.33 95.66 C 891.90 91.50 895.57 85.08 894.13 79.97 C 893.25 78.58 892.08 77.41 891.03 76.17 Z" />
</g>
<g id="#e62725ff">
<path fill="#e62725" opacity="1.00" d=" M 549.67 77.97 C 555.42 78.70 560.06 82.39 565.06 84.98 C 568.16 86.65 571.53 87.75 574.57 89.53 C 583.34 95.18 592.30 100.55 601.41 105.65 C 606.61 108.64 611.01 112.82 616.27 115.72 C 625.38 120.90 634.43 126.21 643.48 131.50 C 652.67 136.10 661.42 141.47 670.17 146.83 C 686.07 155.18 700.51 165.92 715.92 175.08 C 720.03 177.32 723.98 182.33 729.17 180.18 C 744.46 174.51 760.09 169.69 775.27 163.72 C 766.91 162.03 758.51 159.93 750.88 156.04 C 747.48 154.29 745.45 150.86 742.36 148.72 C 739.08 147.69 735.58 147.89 732.20 147.65 C 732.23 147.30 732.29 146.60 732.32 146.25 C 737.23 146.77 742.16 147.07 747.04 147.88 C 752.66 148.59 755.83 153.91 760.56 156.43 C 767.33 160.24 775.48 163.96 783.31 161.27 C 792.02 158.35 800.66 155.20 809.35 152.20 C 810.97 151.79 811.99 150.47 812.83 149.13 C 814.34 149.47 815.84 149.89 817.35 150.28 C 816.58 150.36 815.03 150.52 814.25 150.60 C 815.12 151.35 816.00 152.10 816.89 152.85 C 814.19 154.13 811.51 155.43 808.85 156.76 C 817.62 156.26 826.40 155.93 835.15 155.21 L 835.94 155.43 C 822.91 159.90 808.43 155.18 795.59 160.58 C 787.12 163.95 778.39 166.59 769.87 169.85 C 761.88 172.92 753.57 175.17 745.81 178.84 C 754.77 178.74 763.65 177.38 772.55 176.50 C 820.00 171.60 867.46 166.78 914.90 161.71 C 929.55 160.64 944.08 158.05 958.80 157.76 C 958.59 157.26 958.17 156.26 957.96 155.76 C 962.85 157.98 968.14 157.08 972.97 155.23 C 973.34 155.14 974.07 154.95 974.43 154.86 C 982.93 155.53 991.74 155.08 999.91 152.48 L 1000.64 152.30 C 1008.46 153.07 1016.19 151.30 1023.97 150.78 C 1039.69 149.04 1055.45 147.61 1071.22 146.38 C 1084.82 145.19 1098.39 143.69 1112.02 142.78 C 1119.81 142.54 1126.20 136.85 1134.09 136.97 C 1131.58 138.68 1128.79 139.92 1125.96 140.97 C 1138.04 140.70 1150.04 139.01 1162.11 138.38 C 1198.74 135.37 1235.37 132.26 1271.98 128.97 C 1276.80 128.54 1281.89 128.56 1286.27 126.19 C 1292.19 123.10 1298.50 120.41 1305.26 119.98 C 1300.89 123.16 1295.60 124.56 1290.82 126.96 C 1305.91 126.33 1320.90 124.11 1335.97 123.14 C 1344.79 122.72 1353.50 120.56 1362.36 121.14 C 1356.23 122.85 1349.84 122.86 1343.56 123.53 C 1311.66 126.93 1279.71 129.80 1247.75 132.60 C 1261.28 134.88 1275.11 133.98 1288.77 134.14 L 1288.76 134.86 C 1276.54 134.48 1264.31 135.60 1252.11 134.53 C 1242.40 133.69 1232.60 133.59 1222.90 134.71 C 1208.21 136.11 1193.48 137.16 1178.79 138.53 C 1183.80 139.67 1188.95 139.74 1194.06 140.05 C 1208.24 141.61 1222.53 140.68 1236.77 141.19 L 1236.74 141.89 C 1216.07 142.26 1195.37 142.08 1174.77 140.33 C 1162.50 138.87 1150.22 140.83 1138.01 141.80 C 1119.92 143.13 1101.90 145.20 1083.82 146.61 C 1093.09 149.03 1102.76 147.31 1112.19 148.46 C 1100.84 149.60 1089.40 149.02 1078.07 148.11 C 1068.59 147.36 1059.16 148.82 1049.75 149.66 C 1040.74 150.61 1031.72 151.39 1022.75 152.60 C 1034.74 154.50 1046.94 153.72 1059.04 154.23 C 1071.68 155.03 1084.34 155.10 1097.01 155.14 C 1106.15 155.07 1115.28 156.37 1124.42 155.54 C 1138.91 154.45 1153.46 155.49 1167.95 154.37 C 1194.29 153.75 1220.65 153.66 1247.00 153.89 C 1259.66 154.34 1272.35 153.86 1284.99 154.76 C 1294.72 155.40 1304.52 154.38 1314.21 155.59 C 1294.98 156.79 1275.72 155.18 1256.47 155.53 C 1240.98 154.99 1225.49 155.40 1210.00 155.20 C 1198.67 155.33 1187.33 154.76 1176.01 155.21 C 1157.63 156.43 1139.16 155.41 1120.84 157.36 C 1127.86 159.12 1135.09 159.70 1142.23 160.77 C 1133.39 161.32 1124.58 159.97 1116.00 158.01 C 1111.74 157.03 1107.35 156.80 1103.01 156.89 C 1074.44 157.44 1045.92 155.59 1017.40 154.48 C 1006.58 153.27 995.85 155.49 985.10 156.35 C 978.65 156.94 972.17 157.28 965.79 158.49 C 976.68 159.17 987.46 160.97 998.36 161.45 C 1006.30 162.38 1014.29 162.75 1022.23 163.67 C 1013.56 164.70 1004.86 163.45 996.23 162.68 C 985.96 161.45 975.64 160.87 965.40 159.48 C 959.94 158.71 954.44 159.35 949.01 159.97 C 903.58 164.77 858.13 169.49 812.73 174.56 C 829.44 177.03 846.38 175.19 863.17 176.51 C 846.15 177.71 829.05 176.92 812.03 176.04 C 796.84 175.45 781.82 178.12 766.76 179.62 C 751.59 180.63 736.37 184.90 721.19 181.77 C 716.34 181.14 712.60 177.81 708.44 175.58 C 703.63 173.11 698.08 173.05 692.86 172.19 C 674.26 169.44 655.57 167.31 636.88 165.34 C 620.67 163.12 604.28 164.43 588.00 164.71 C 574.94 164.69 561.86 165.31 548.82 164.57 C 561.03 163.44 573.34 164.66 585.58 163.65 C 593.13 162.92 600.76 163.66 608.29 162.59 C 589.23 160.64 570.08 159.74 550.96 158.72 C 535.97 157.08 520.86 158.44 505.84 157.41 C 553.35 155.88 600.82 159.89 648.04 164.75 C 658.82 165.74 669.53 167.31 680.28 168.53 C 686.92 169.25 693.48 170.77 700.18 170.88 C 697.91 168.76 695.47 166.82 692.81 165.22 C 683.39 159.70 674.62 153.10 664.92 148.06 C 659.24 145.53 652.84 147.21 646.85 146.54 C 650.99 146.17 655.15 146.08 659.31 145.87 C 657.51 143.94 655.72 141.84 653.20 140.85 C 650.26 139.68 647.03 139.79 643.93 139.63 C 645.31 139.30 646.69 138.95 648.08 138.61 C 644.42 135.81 640.62 132.79 635.98 131.92 C 632.28 131.28 628.52 131.08 624.82 130.50 C 627.54 130.25 630.26 130.04 632.99 129.82 C 630.51 128.28 628.09 126.21 625.05 126.00 C 615.96 125.53 606.80 126.57 597.75 125.42 C 606.25 124.52 614.88 125.95 623.31 124.19 C 615.61 119.41 607.49 115.26 600.31 109.68 C 595.31 105.69 588.85 104.19 583.94 100.09 C 579.74 96.70 574.91 94.26 570.16 91.77 C 564.87 88.78 558.60 90.08 552.83 89.54 C 556.62 89.15 560.43 88.95 564.24 88.76 C 559.52 85.00 552.55 83.67 549.67 77.97 Z" />
</g>
<g id="#e81f24ff">
<path fill="#e81f24" opacity="1.00" d=" M 592.98 82.09 C 596.94 81.07 600.98 79.19 605.15 80.18 C 600.73 82.12 596.03 83.23 591.38 84.44 C 585.85 85.81 580.51 88.40 574.68 88.09 C 580.52 85.38 586.86 84.02 592.98 82.09 Z" />
</g>
<g id="#e72a28ff">
<path fill="#e72a28" opacity="1.00" d=" M 683.29 85.38 C 687.08 83.37 690.94 81.11 695.38 81.14 C 694.08 82.61 692.66 84.01 690.87 84.84 C 681.15 89.55 671.27 93.88 661.56 98.60 C 654.52 101.43 647.43 104.98 639.69 105.06 C 646.00 101.18 653.20 99.13 659.89 96.00 C 667.84 92.80 675.81 89.62 683.29 85.38 Z" />
</g>
<g id="#e72121ff">
<path fill="#e72121" opacity="1.00" d=" M 816.50 97.55 C 820.52 94.70 825.40 93.10 830.33 93.00 C 827.57 95.60 824.04 97.04 820.59 98.47 C 820.68 100.97 820.76 103.46 820.84 105.96 C 818.60 105.85 816.37 105.73 814.15 105.60 C 814.44 102.87 813.93 99.37 816.50 97.55 Z" />
</g>
<g id="#f09195ff">
<path fill="#f09195" opacity="1.00" d=" M 1098.25 102.32 C 1101.14 101.14 1104.01 99.92 1106.95 98.85 C 1106.75 99.37 1106.35 100.40 1106.15 100.92 C 1104.51 101.55 1102.87 102.21 1101.27 102.89 C 1103.20 103.95 1105.17 104.99 1107.13 106.03 C 1104.32 105.50 1101.55 104.86 1098.77 104.22 C 1098.64 103.75 1098.38 102.79 1098.25 102.32 Z" />
</g>
<g id="#ecf9f8ff">
<path fill="#ecf9f8" opacity="1.00" d=" M 760.54 116.60 C 770.31 114.39 780.15 112.45 790.03 110.71 C 793.37 110.07 796.67 111.16 800.00 111.42 C 807.02 111.69 814.04 112.08 821.05 111.35 C 830.94 111.93 840.69 114.00 850.47 115.53 C 855.98 116.58 861.84 117.16 866.65 120.31 C 872.29 122.78 878.82 122.33 884.32 125.33 C 878.01 126.68 871.66 127.98 865.20 128.39 C 862.58 127.99 859.88 126.65 857.24 127.60 C 852.07 129.43 846.90 131.32 841.52 132.43 C 838.02 133.10 834.53 131.95 831.14 131.25 C 831.53 132.69 831.94 134.14 832.35 135.59 C 825.69 136.23 819.73 139.70 813.07 140.23 C 805.32 141.22 797.50 141.58 789.74 140.60 C 789.86 141.71 790.00 142.83 790.14 143.94 C 788.94 143.86 787.75 143.78 786.57 143.69 C 783.69 140.39 778.97 140.07 774.99 138.99 C 770.32 138.68 766.92 135.19 762.74 133.56 C 758.99 132.16 755.54 130.07 751.78 128.71 C 752.85 128.44 753.93 128.17 755.02 127.89 C 753.57 127.29 752.13 126.70 750.69 126.11 C 750.52 123.84 750.37 121.56 750.20 119.29 C 753.82 119.21 757.19 117.83 760.54 116.60 Z" />
</g>
<g id="#e72b27ff">
<path fill="#e72b27" opacity="1.00" d=" M 1244.01 117.92 C 1251.06 117.17 1258.01 115.53 1265.12 115.16 C 1245.17 120.73 1224.33 121.67 1203.94 124.85 C 1193.55 126.28 1183.14 127.58 1172.90 129.87 C 1165.18 131.27 1157.62 133.83 1149.73 133.98 C 1157.86 130.82 1166.62 129.82 1175.15 128.21 C 1198.03 124.28 1221.05 121.34 1244.01 117.92 Z" />
<path fill="#e72b27" opacity="1.00" d=" M 915.83 178.42 C 925.25 177.76 934.74 178.16 944.17 178.49 C 941.33 178.79 938.49 179.03 935.67 179.30 C 942.48 181.58 949.74 182.07 956.57 184.30 C 961.95 185.88 966.95 188.48 971.88 191.11 C 976.32 193.50 981.07 195.32 985.23 198.22 C 980.01 198.79 975.37 195.89 970.61 194.29 C 962.27 191.27 954.95 185.95 946.42 183.42 C 936.54 180.15 926.08 179.64 915.83 178.42 Z" />
</g>
<g id="#792626ff">
<path fill="#792626" opacity="1.00" d=" M 745.46 119.15 C 750.11 116.88 755.38 115.91 760.54 116.60 C 757.19 117.83 753.82 119.21 750.20 119.29 C 748.61 119.27 747.03 119.22 745.46 119.15 Z" />
</g>
<g id="#e1444bff">
<path fill="#e1444b" opacity="1.00" d=" M 745.46 119.15 C 747.03 119.22 748.61 119.27 750.20 119.29 C 750.37 121.56 750.52 123.84 750.69 126.11 C 752.13 126.70 753.57 127.29 755.02 127.89 C 753.93 128.17 752.85 128.44 751.78 128.71 C 751.18 128.81 749.99 129.01 749.39 129.11 C 747.33 126.14 746.10 122.69 745.46 119.15 Z" />
</g>
<g id="#e7201fff">
<path fill="#e7201f" opacity="1.00" d=" M 345.76 120.77 C 351.11 120.54 355.81 123.41 360.54 125.48 C 365.70 127.85 371.26 130.44 374.04 135.70 C 371.18 137.50 368.00 138.67 364.67 139.18 C 364.45 136.75 365.20 133.75 363.20 131.88 C 358.22 126.95 351.08 125.25 345.76 120.77 Z" />
</g>
<g id="#fdfdfdff">
<path fill="#fdfdfd" opacity="1.00" d=" M 937.00 121.32 C 944.34 121.81 951.59 120.38 958.91 120.30 C 967.44 121.28 976.00 119.59 984.53 120.66 C 995.21 121.13 1005.73 123.14 1016.26 124.87 C 1024.12 126.12 1031.73 128.59 1039.62 129.70 C 1039.60 130.86 1039.59 132.02 1039.61 133.19 C 1037.99 133.66 1036.35 134.11 1034.92 134.98 C 1028.52 138.65 1021.20 140.02 1014.33 142.48 C 1009.66 143.74 1005.15 145.50 1000.51 146.84 C 1000.52 148.66 1000.54 150.48 1000.64 152.30 L 999.91 152.48 C 996.69 152.70 993.46 152.87 990.25 152.74 C 981.19 151.07 971.91 150.23 962.75 151.64 C 966.41 152.44 970.11 152.95 973.84 153.34 C 973.62 153.81 973.19 154.76 972.97 155.23 C 968.14 157.08 962.85 157.98 957.96 155.76 C 956.58 155.29 955.24 154.75 953.86 154.33 C 950.70 153.26 947.36 152.87 944.06 152.61 C 946.02 151.63 947.96 150.62 949.90 149.60 C 945.90 145.22 940.92 141.56 934.82 141.08 C 934.42 140.95 933.61 140.68 933.21 140.55 C 928.91 138.56 925.77 134.83 921.64 132.54 C 919.98 130.57 918.07 128.51 915.32 128.36 C 911.68 127.59 907.99 127.06 904.31 126.63 C 903.85 126.23 902.94 125.42 902.49 125.01 C 906.43 124.32 910.25 123.08 914.19 122.35 C 921.81 122.27 929.40 122.05 937.00 121.32 Z" />
</g>
<g id="#a15b5bff">
<path fill="#a15b5b" opacity="1.00" d=" M 904.63 123.51 C 907.79 122.93 910.97 122.42 914.19 122.35 C 910.25 123.08 906.43 124.32 902.49 125.01 C 900.64 125.33 898.80 125.65 896.97 125.99 L 896.11 126.12 C 893.54 126.20 890.98 125.96 888.45 125.58 C 893.80 124.57 899.28 124.51 904.63 123.51 Z" />
</g>
<g id="#e5e6e8ff">
<path fill="#e5e6e8" opacity="1.00" d=" M 884.32 125.33 C 885.69 125.15 887.07 125.42 888.45 125.58 C 890.98 125.96 893.54 126.20 896.11 126.12 C 886.23 128.06 875.78 127.55 866.39 131.57 C 862.59 132.89 864.72 137.69 864.90 140.53 C 863.46 140.67 862.02 140.81 860.59 140.95 C 860.54 138.28 860.29 135.58 860.69 132.93 C 860.92 130.55 863.53 129.64 865.20 128.39 C 871.66 127.98 878.01 126.68 884.32 125.33 Z" />
</g>
<g id="#ede9f3ff">
<path fill="#ede9f3" opacity="1.00" d=" M 896.97 125.99 C 898.80 125.65 900.64 125.33 902.49 125.01 C 902.94 125.42 903.85 126.23 904.31 126.63 C 907.47 129.11 911.57 128.80 915.32 128.36 C 918.07 128.51 919.98 130.57 921.64 132.54 C 918.51 131.46 915.15 129.90 911.81 131.01 C 908.48 132.11 905.00 131.84 901.58 131.91 C 899.33 133.36 897.74 135.60 895.91 137.52 C 899.03 141.43 901.73 146.25 906.72 148.01 C 911.30 149.71 915.76 151.73 920.16 153.88 C 913.39 154.32 906.41 154.40 899.96 152.04 C 895.47 150.47 891.92 147.20 888.28 144.28 C 886.25 145.46 884.31 147.02 881.96 147.43 C 880.20 147.24 878.62 146.36 877.02 145.72 C 882.32 142.27 888.28 140.04 894.51 139.01 C 891.11 135.96 886.76 134.42 882.73 132.42 C 886.65 132.13 891.60 133.94 894.65 130.65 C 896.19 129.15 897.48 127.44 898.81 125.75 C 898.35 125.81 897.43 125.93 896.97 125.99 Z" />
</g>
<g id="#fbfafbff">
<path fill="#fbfafb" opacity="1.00" d=" M 857.24 127.60 C 859.88 126.65 862.58 127.99 865.20 128.39 C 863.53 129.64 860.92 130.55 860.69 132.93 C 860.29 135.58 860.54 138.28 860.59 140.95 C 862.02 140.81 863.46 140.67 864.90 140.53 C 864.72 137.69 862.59 132.89 866.39 131.57 C 875.78 127.55 886.23 128.06 896.11 126.12 L 896.97 125.99 C 897.43 125.93 898.35 125.81 898.81 125.75 C 897.48 127.44 896.19 129.15 894.65 130.65 C 891.60 133.94 886.65 132.13 882.73 132.42 C 886.76 134.42 891.11 135.96 894.51 139.01 C 888.28 140.04 882.32 142.27 877.02 145.72 C 878.62 146.36 880.20 147.24 881.96 147.43 C 884.31 147.02 886.25 145.46 888.28 144.28 C 891.92 147.20 895.47 150.47 899.96 152.04 C 906.41 154.40 913.39 154.32 920.16 153.88 C 922.72 153.92 925.29 153.95 927.86 154.17 C 929.44 154.36 931.02 154.62 932.62 154.85 L 933.45 154.95 C 921.95 156.77 910.28 157.40 898.84 159.66 C 892.80 160.98 886.47 160.37 880.55 162.29 C 876.92 163.38 873.10 163.99 869.32 163.43 C 862.33 162.51 855.20 162.29 848.34 160.56 C 844.23 158.80 840.34 156.45 835.94 155.43 L 835.15 155.21 C 829.27 153.37 823.33 151.76 817.35 150.28 C 815.84 149.89 814.34 149.47 812.83 149.13 C 805.19 147.92 797.79 145.64 790.19 144.34 L 790.14 143.94 C 790.00 142.83 789.86 141.71 789.74 140.60 C 797.50 141.58 805.32 141.22 813.07 140.23 C 819.73 139.70 825.69 136.23 832.35 135.59 C 831.94 134.14 831.53 132.69 831.14 131.25 C 834.53 131.95 838.02 133.10 841.52 132.43 C 846.90 131.32 852.07 129.43 857.24 127.60 M 869.93 133.30 C 871.06 134.06 872.20 134.82 873.35 135.57 C 873.40 136.46 873.45 137.36 873.51 138.25 C 876.24 138.13 878.97 137.96 881.70 137.67 C 880.03 132.84 873.96 134.00 869.93 133.30 Z" />
</g>
<g id="#c3c5ceff">
<path fill="#c3c5ce" opacity="1.00" d=" M 904.31 126.63 C 907.99 127.06 911.68 127.59 915.32 128.36 C 911.57 128.80 907.47 129.11 904.31 126.63 Z" />
</g>
<g id="#c9c3e4ff">
<path fill="#c9c3e4" opacity="1.00" d=" M 911.81 131.01 C 915.15 129.90 918.51 131.46 921.64 132.54 C 925.77 134.83 928.91 138.56 933.21 140.55 C 933.33 142.01 933.46 143.46 933.60 144.92 C 929.28 145.11 925.12 143.86 921.67 141.28 C 921.14 141.68 920.63 142.09 920.13 142.50 C 923.02 146.18 925.46 150.17 927.86 154.17 C 925.29 153.95 922.72 153.92 920.16 153.88 C 915.76 151.73 911.30 149.71 906.72 148.01 C 901.73 146.25 899.03 141.43 895.91 137.52 C 897.74 135.60 899.33 133.36 901.58 131.91 C 905.00 131.84 908.48 132.11 911.81 131.01 Z" />
</g>
<g id="#b394b4ff">
<path fill="#b394b4" opacity="1.00" d=" M 869.93 133.30 C 873.96 134.00 880.03 132.84 881.70 137.67 C 878.97 137.96 876.24 138.13 873.51 138.25 C 873.45 137.36 873.40 136.46 873.35 135.57 C 872.20 134.82 871.06 134.06 869.93 133.30 Z" />
</g>
<g id="#dad5e9ff">
<path fill="#dad5e9" opacity="1.00" d=" M 920.13 142.50 C 920.63 142.09 921.14 141.68 921.67 141.28 C 925.12 143.86 929.28 145.11 933.60 144.92 C 933.46 143.46 933.33 142.01 933.21 140.55 C 933.61 140.68 934.42 140.95 934.82 141.08 C 937.95 143.93 940.63 147.23 943.39 150.43 C 939.36 150.99 935.33 151.43 931.29 151.77 C 931.72 152.79 932.16 153.82 932.62 154.85 C 931.02 154.62 929.44 154.36 927.86 154.17 C 925.46 150.17 923.02 146.18 920.13 142.50 Z" />
</g>
<g id="#eaecf4ff">
<path fill="#eaecf4" opacity="1.00" d=" M 934.82 141.08 C 940.92 141.56 945.90 145.22 949.90 149.60 C 947.96 150.62 946.02 151.63 944.06 152.61 C 947.36 152.87 950.70 153.26 953.86 154.33 C 947.08 153.16 940.23 154.33 933.45 154.95 L 932.62 154.85 C 932.16 153.82 931.72 152.79 931.29 151.77 C 935.33 151.43 939.36 150.99 943.39 150.43 C 940.63 147.23 937.95 143.93 934.82 141.08 Z" />
</g>
<g id="#e40514ff">
<path fill="#e40514" opacity="1.00" d=" M 814.25 150.60 C 815.03 150.52 816.58 150.36 817.35 150.28 C 823.33 151.76 829.27 153.37 835.15 155.21 C 826.40 155.93 817.62 156.26 808.85 156.76 C 811.51 155.43 814.19 154.13 816.89 152.85 C 816.00 152.10 815.12 151.35 814.25 150.60 Z" />
</g>
<g id="#e8a572ff">
<path fill="#e8a572" opacity="1.00" d=" M 962.75 151.64 C 971.91 150.23 981.19 151.07 990.25 152.74 C 984.89 152.57 979.50 153.04 974.43 154.86 C 974.07 154.95 973.34 155.14 972.97 155.23 C 973.19 154.76 973.62 153.81 973.84 153.34 C 970.11 152.95 966.41 152.44 962.75 151.64 Z" />
</g>
<g id="#de100aff">
<path fill="#de100a" opacity="1.00" d=" M 974.43 154.86 C 979.50 153.04 984.89 152.57 990.25 152.74 C 993.46 152.87 996.69 152.70 999.91 152.48 C 991.74 155.08 982.93 155.53 974.43 154.86 Z" />
</g>
<g id="#e40315ff">
<path fill="#e40315" opacity="1.00" d=" M 933.45 154.95 C 940.23 154.33 947.08 153.16 953.86 154.33 C 955.24 154.75 956.58 155.29 957.96 155.76 C 958.17 156.26 958.59 157.26 958.80 157.76 C 944.08 158.05 929.55 160.64 914.90 161.71 C 867.46 166.78 820.00 171.60 772.55 176.50 C 763.65 177.38 754.77 178.74 745.81 178.84 C 753.57 175.17 761.88 172.92 769.87 169.85 C 778.39 166.59 787.12 163.95 795.59 160.58 C 808.43 155.18 822.91 159.90 835.94 155.43 C 840.34 156.45 844.23 158.80 848.34 160.56 C 855.20 162.29 862.33 162.51 869.32 163.43 C 873.10 163.99 876.92 163.38 880.55 162.29 C 886.47 160.37 892.80 160.98 898.84 159.66 C 910.28 157.40 921.95 156.77 933.45 154.95 Z" />
</g>
<g id="#f19b9bff">
<path fill="#f19b9b" opacity="1.00" d=" M 1319.21 169.24 C 1321.66 168.08 1324.07 166.85 1326.62 165.89 C 1326.48 167.41 1326.31 168.94 1326.41 170.47 C 1328.13 171.92 1330.22 172.84 1332.19 173.94 C 1327.58 173.22 1323.37 171.20 1319.21 169.24 Z" />
</g>
<g id="#e62125ff">
<path fill="#e62125" opacity="1.00" d=" M 946.80 179.46 C 958.79 177.97 970.91 179.14 982.92 179.81 C 997.94 179.95 1012.94 181.13 1027.95 181.58 C 1039.88 180.85 1051.84 180.83 1063.79 181.04 L 1063.74 181.79 C 1056.73 181.95 1049.70 181.62 1042.74 182.50 C 1072.58 184.18 1102.39 186.57 1132.22 188.53 C 1135.91 188.79 1139.62 189.06 1143.28 189.71 C 1130.15 190.73 1117.07 188.00 1103.93 187.92 C 1065.97 185.48 1028.01 183.04 990.04 181.13 C 985.09 181.14 980.15 181.05 975.23 180.58 C 965.78 179.61 956.23 180.76 946.80 179.46 Z" />
</g>
<g id="#eb7371ff">
<path fill="#eb7371" opacity="1.00" d=" M 604.28 233.55 C 603.95 229.20 608.97 227.13 612.64 227.08 C 610.36 228.93 608.09 230.79 605.75 232.55 C 605.38 232.80 604.65 233.30 604.28 233.55 Z" />
</g>
<g id="#e1e1e1ff">
<path fill="#e1e1e1" opacity="1.00" d=" M 14.18 239.12 C 27.55 238.19 40.95 239.54 54.33 239.33 C 65.27 238.56 76.26 238.85 87.20 239.36 C 92.23 239.37 97.37 238.14 102.29 239.77 C 101.65 240.01 100.38 240.49 99.74 240.72 C 104.90 241.64 110.16 241.47 115.29 240.49 C 111.51 240.00 107.72 239.62 103.91 239.58 C 111.29 239.24 118.69 238.76 126.08 239.13 C 125.75 241.07 125.42 243.02 125.08 244.97 C 116.64 245.72 108.22 243.70 99.80 244.84 C 95.61 245.32 91.41 244.67 87.21 244.67 C 75.05 245.29 62.85 245.04 50.68 244.65 C 44.75 245.02 38.81 244.96 32.88 244.75 C 26.90 245.04 20.90 245.49 14.93 244.73 C 14.68 242.86 14.43 240.99 14.18 239.12 M 35.79 240.17 C 35.66 241.80 39.35 241.81 39.22 240.17 C 38.41 239.21 36.60 239.21 35.79 240.17 Z" />
</g>
<g id="#abababff">
<path fill="#ababab" opacity="1.00" d=" M 35.79 240.17 C 36.60 239.21 38.41 239.21 39.22 240.17 C 39.35 241.81 35.66 241.80 35.79 240.17 Z" />
</g>
<g id="#c8c8c8ff">
<path fill="#c8c8c8" opacity="1.00" d=" M 99.74 240.72 C 100.38 240.49 101.65 240.01 102.29 239.77 C 102.69 239.72 103.50 239.63 103.91 239.58 C 107.72 239.62 111.51 240.00 115.29 240.49 C 110.16 241.47 104.90 241.64 99.74 240.72 Z" />
</g>
<g id="#e0e0e0ff">
<path fill="#e0e0e0" opacity="1.00" d=" M 237.69 240.49 C 244.14 239.24 250.55 241.40 257.02 241.05 C 261.64 240.94 266.19 239.71 270.82 240.03 C 274.52 240.18 277.25 243.30 280.94 243.61 C 280.01 242.73 279.09 241.86 278.15 241.01 C 282.57 240.73 287.02 240.57 291.41 241.32 C 288.57 241.97 285.69 242.37 282.81 242.71 C 291.99 243.75 300.84 240.07 310.01 240.82 C 325.00 241.46 339.99 240.54 354.98 241.12 C 353.99 241.74 353.01 242.37 352.03 242.99 C 353.42 243.63 354.81 244.27 356.20 244.92 C 344.13 244.88 332.05 244.07 319.99 244.88 C 311.82 244.26 303.65 245.24 295.47 244.66 C 281.78 245.66 268.01 243.36 254.38 245.40 C 248.90 246.04 243.48 244.63 238.02 244.56 C 225.00 244.42 211.99 244.84 198.98 245.07 C 190.00 244.14 181.01 245.21 172.01 245.03 C 159.39 244.02 146.66 246.40 134.12 243.87 C 134.48 242.96 134.84 242.05 135.20 241.15 C 159.48 240.67 183.76 241.24 208.04 240.89 C 212.03 240.63 215.90 243.15 219.84 241.89 C 225.63 239.94 231.77 241.56 237.69 240.49 Z" />
</g>
<g id="#dcdcdcff">
<path fill="#dcdcdc" opacity="1.00" d=" M 1161.90 240.97 C 1169.26 240.47 1176.65 240.96 1184.01 240.27 C 1193.34 239.48 1202.65 240.93 1211.99 240.73 C 1219.64 240.62 1227.29 240.99 1234.95 240.70 C 1240.26 240.68 1246.25 240.22 1250.55 243.98 C 1248.62 244.33 1246.67 244.50 1244.74 244.22 C 1245.38 243.91 1246.67 243.30 1247.31 243.00 C 1240.75 242.68 1234.14 242.87 1227.66 243.95 C 1220.25 245.57 1212.70 243.90 1205.23 244.44 C 1195.16 245.06 1185.08 244.67 1175.02 244.31 C 1165.99 244.99 1157.00 243.39 1147.98 244.14 C 1135.09 243.89 1122.16 245.46 1109.32 243.73 C 1105.14 243.02 1101.03 244.18 1096.96 244.95 C 1092.69 245.91 1088.59 243.47 1084.32 244.16 C 1079.61 244.90 1074.83 244.70 1070.15 243.84 C 1070.23 243.22 1070.40 241.98 1070.48 241.36 C 1076.61 240.87 1082.79 240.51 1088.91 241.26 C 1098.22 242.42 1107.63 241.63 1116.93 240.79 C 1124.95 240.42 1132.99 241.02 1141.02 240.76 C 1147.98 240.49 1154.94 241.49 1161.90 240.97 Z" />
</g>
<g id="#e2e2e2ff">
<path fill="#e2e2e2" opacity="1.00" d=" M 1259.43 241.17 C 1272.76 240.85 1286.14 240.55 1299.37 242.61 C 1304.06 243.67 1308.28 240.43 1312.96 240.70 C 1321.65 240.71 1330.34 241.11 1339.03 240.84 C 1342.23 240.67 1345.35 241.60 1348.29 242.80 C 1348.34 242.34 1348.45 241.41 1348.50 240.94 C 1352.14 240.59 1355.87 240.50 1359.39 241.71 C 1363.26 243.26 1367.04 240.43 1371.00 240.80 C 1384.00 241.04 1397.01 240.75 1410.02 240.77 C 1412.95 240.69 1415.81 241.49 1418.51 242.60 C 1418.51 242.21 1418.50 241.44 1418.50 241.06 C 1428.02 241.05 1437.86 239.43 1447.14 242.16 C 1454.19 239.71 1461.70 241.04 1468.99 240.78 C 1477.32 240.50 1485.63 241.42 1493.96 240.96 C 1501.09 240.81 1508.23 240.56 1515.36 241.06 C 1515.47 241.50 1515.69 242.38 1515.80 242.82 C 1523.12 239.50 1531.27 240.91 1539.03 240.82 C 1548.38 240.58 1557.69 241.66 1567.03 240.94 C 1573.76 242.05 1581.06 238.99 1587.28 242.66 C 1580.15 245.80 1572.31 244.23 1564.81 244.32 C 1558.51 244.00 1552.15 245.63 1545.93 244.09 C 1540.70 242.87 1535.39 244.26 1530.16 244.51 C 1522.77 245.29 1515.39 243.88 1508.00 244.39 C 1497.68 244.87 1487.35 245.06 1477.07 244.02 C 1469.92 242.84 1462.76 244.45 1455.62 244.71 C 1449.44 245.38 1443.40 243.68 1437.33 242.91 C 1437.78 243.56 1438.25 244.22 1438.73 244.88 C 1431.48 244.11 1424.20 245.10 1416.95 244.46 C 1400.65 244.56 1384.34 244.12 1368.05 244.69 C 1357.22 243.55 1346.36 245.31 1335.52 244.53 C 1328.32 244.02 1321.08 244.16 1313.90 244.76 C 1308.92 245.21 1303.96 244.46 1299.00 244.41 C 1288.36 244.56 1277.72 244.63 1267.09 244.62 C 1264.23 244.44 1259.98 244.92 1259.43 241.17 Z" />
</g>
<g id="#aeaeaeff">
<path fill="#aeaeae" opacity="1.00" d=" M 1227.66 243.95 C 1234.14 242.87 1240.75 242.68 1247.31 243.00 C 1246.67 243.30 1245.38 243.91 1244.74 244.22 C 1239.04 244.40 1233.34 244.25 1227.66 243.95 Z" />
</g>
</svg>
